<svg id="Grupo_30" data-name="Grupo 30" xmlns="http://www.w3.org/2000/svg" xmlns:xlink="http://www.w3.org/1999/xlink" width="100" height="100" viewBox="0 0 100 100">

        <path id="Trazado_22" data-name="Trazado 22" d="M89.661,74.2c-.57,1.855-1.93,2.74-3.708,3.345Q68.868,83.359,51.825,89.3a5.34,5.34,0,0,1-3.684-.013q-17.38-6.03-34.783-11.995a4.02,4.02,0,0,1-3.019-4.167q0-17.27,0-34.538a2.782,2.782,0,0,1,2.3-3.113Q30.67,29.678,48.7,23.874a4,4,0,0,1,2.566-.016q18.1,5.833,36.213,11.628a3.42,3.42,0,0,1,2.184,2ZM51.326,26.666V43.883c0,.233.008.466,0,.7-.046.939-.543,1.477-1.345,1.465-.779-.011-1.248-.525-1.3-1.431-.013-.232-.005-.465-.005-.7q0-8.132,0-16.263v-.976C36.756,30.5,25,34.279,13.045,38.116c.425.151.633.232.845.3q17.591,5.659,35.177,11.326a2.7,2.7,0,0,0,1.78.035q14.934-4.827,29.882-9.608L86.8,38.22c0-.054.005-.108.007-.162L51.326,26.666M12.977,40.928V41.8q0,15.563,0,31.124c0,1.234.186,1.5,1.375,1.905q16.808,5.8,33.615,11.589c.2.07.415.108.673.173.014-.268.031-.445.031-.623q0-16.452.013-32.9a.8.8,0,0,0-.687-.9q-15.644-5-31.277-10.036c-1.22-.392-2.443-.78-3.744-1.195M51.326,86.657c.384-.128.648-.214.91-.305L85.7,74.816c1.09-.376,1.318-.69,1.318-1.875q0-15.6,0-31.2c0-.242-.025-.484-.04-.774-.275.08-.472.131-.665.193Q69.205,46.653,52.092,52.132a.928.928,0,0,0-.781,1.072q.031,16.259.015,32.518v.935"/>
        <path id="Trazado_23" data-name="Trazado 23" d="M50.465,10.382a1.928,1.928,0,0,1,.871,1.834c-.028,2.294-.009,4.59-.011,6.885a4.875,4.875,0,0,1-.023.617,1.274,1.274,0,0,1-1.341,1.215,1.208,1.208,0,0,1-1.252-1.215c-.035-2.707-.048-5.415.025-8.12.011-.412.522-.811.8-1.216Z"/>
        <path id="Trazado_24" data-name="Trazado 24" d="M34.243,22.426c-.276.322-.527.87-.922,1.007a2.4,2.4,0,0,1-1.411-.241c-.192-.071-.31-.395-.424-.623q-1.839-3.66-3.664-7.327c-.47-.945-.308-1.68.434-2.063s1.448-.064,1.918.87q1.844,3.659,3.667,7.326c.136.274.221.572.4,1.051"/>
        <path id="Trazado_25" data-name="Trazado 25" d="M67.467,23.587c-1.265-.017-1.854-.937-1.456-1.877.28-.663.636-1.295.958-1.941.968-1.937,1.929-3.877,2.906-5.809a1.334,1.334,0,1,1,2.368,1.167c-1.086,2.2-2.189,4.383-3.286,6.573a5.969,5.969,0,0,1-.606,1.161,4.85,4.85,0,0,1-.884.726"/>
        <path id="Trazado_26" data-name="Trazado 26" d="M46.023,67.772c0,3.665-.082,7.332.03,10.993A2.825,2.825,0,0,1,42.014,81.6c-8.037-2.848-16.112-5.586-24.172-8.366a2.79,2.79,0,0,1-2.223-3.1q0-10.761,0-21.523c0-2.381,1.586-3.547,3.842-2.824Q31.6,49.682,43.744,53.584c1.741.56,2.276,1.3,2.278,3.117q.006,5.535,0,11.071m-2.646-5.347c0-1.877-.032-3.628.018-5.377a.922.922,0,0,0-.784-1.074C36.5,54.034,30.4,52.063,24.3,50.1c-1.981-.636-3.964-1.265-6.036-1.925,0,1.861.025,3.634-.014,5.405a.867.867,0,0,0,.726,1.024c5.28,1.664,10.547,3.367,15.818,5.06l8.588,2.759m-25.118-5.29c0,1.872.027,3.648-.015,5.422-.014.6.183.824.751,1q9.874,3.129,19.731,6.317c1.515.486,3.03.975,4.651,1.5,0-1.858-.03-3.608.017-5.356a.932.932,0,0,0-.771-1.091q-9.469-3-18.924-6.053c-1.785-.572-3.572-1.142-5.44-1.739m0,8.962c0,1.308.035,2.515-.015,3.719a.88.88,0,0,0,.732,1.027q10.088,3.438,20.157,6.932c1.38.476,2.761.949,4.244,1.458,0-1.5-.037-2.892.017-4.278.025-.637-.195-.882-.79-1.07-6.379-2.023-12.748-4.079-19.121-6.124-1.709-.548-3.421-1.09-5.224-1.664"/>
        <path id="Trazado_27" data-name="Trazado 27" d="M53.977,67.731q0-5.5,0-10.994c0-1.871.542-2.6,2.313-3.165Q68.4,49.689,80.5,45.8c2.307-.74,3.881.415,3.882,2.849q0,10.722,0,21.445a2.833,2.833,0,0,1-2.253,3.164Q70.035,77.422,57.944,81.6a2.886,2.886,0,0,1-3.055-.356,2.774,2.774,0,0,1-.917-2.285c.013-3.742.006-7.483.005-11.225m2.648-2.325,6.218-2c2.234-.717,3.426-.365,4.9,1.445A2.639,2.639,0,0,0,72.467,63.3a3.9,3.9,0,0,1,3.075-3.946c1.719-.544,3.427-1.13,5.161-1.621a1.206,1.206,0,0,0,1.063-1.424c-.076-2.088-.025-4.18-.025-6.271V48.208c-.323.1-.568.16-.809.237q-4.417,1.413-8.834,2.83-7.4,2.377-14.786,4.773c-.262.085-.654.365-.657.56-.043,2.887-.03,5.775-.03,8.8m0,13.793c.329-.09.552-.139.767-.213q11.877-4.09,23.758-8.175a.769.769,0,0,0,.6-.886c-.021-2.814-.011-5.627-.011-8.441V60.219c-.272.055-.449.074-.615.127-1.644.526-3.281,1.076-4.933,1.578a1.4,1.4,0,0,0-1.1,1.47,5.259,5.259,0,0,1-9.456,3.043,1.412,1.412,0,0,0-1.795-.582c-2.174.73-4.356,1.439-6.552,2.1-.568.171-.687.444-.683.981.022,3.149.011,6.3.011,9.447V79.2"/>

</svg>
