<svg xmlns="http://www.w3.org/2000/svg" width="117" height="20" viewBox="0 0 117 20" fill="none">
<path d="M14.359 5.62006C14.359 9.56967 11.3394 12.3443 7.18019 12.3443H4.58783L4.00384 19.4649C3.98959 19.5782 3.88989 19.6773 3.77594 19.6773H0.229253C0.0868156 19.6773 -0.0128905 19.564 0.00135327 19.4225L1.85304 0.212345C1.86728 0.0849379 1.96699 0 2.09518 0H8.47637C12.0943 0 14.3733 2.12345 14.359 5.62006ZM7.73569 3.65233H5.52792L4.97241 8.69198H7.1517C8.87519 8.69198 10.2996 8.05494 10.2996 6.01643C10.3281 4.26105 9.28826 3.65233 7.73569 3.65233Z" fill="#3A3080"/>
<path d="M26.1029 14.296H16.9263C17.3518 15.7348 18.6425 16.4542 20.3162 16.4542C21.3941 16.4542 22.4153 16.1809 23.3939 15.5334C23.4932 15.4614 23.6351 15.4902 23.706 15.5765L24.9399 17.1449C25.0108 17.2312 25.0108 17.3751 24.9257 17.447C23.706 18.7276 21.8905 19.6772 19.6637 19.6772C16.2739 19.6772 13.2954 17.447 13.2954 13.332C13.2954 9.08737 16.6001 5.84998 20.5856 5.84998C23.9613 5.84998 27.6064 8.23845 26.3299 14.1233C26.3015 14.224 26.2164 14.296 26.1029 14.296ZM17.054 11.4615H23.0819C22.9259 9.87873 21.6636 9.18809 20.2736 9.18809C18.6567 9.1737 17.5504 10.1233 17.054 11.4615Z" fill="#3A3080"/>
<path d="M57.4156 6.38184H60.9255C61.07 6.38184 61.1711 6.4967 61.1567 6.64028L59.8133 19.4619C59.7989 19.5768 59.6978 19.6773 59.5822 19.6773H56.0723C55.9279 19.6773 55.8268 19.5624 55.8412 19.4188L57.1845 6.59721C57.199 6.46798 57.3001 6.38184 57.4156 6.38184Z" fill="#3A3080"/>
<path d="M59.5623 4.25455C60.7372 4.25455 61.6896 3.30213 61.6896 2.12727C61.6896 0.952412 60.7372 0 59.5623 0C58.3875 0 57.4351 0.952412 57.4351 2.12727C57.4351 3.30213 58.3875 4.25455 59.5623 4.25455Z" fill="#3A3080"/>
<path d="M29.2235 6.46245H32.4449C32.627 6.46245 32.7811 6.6229 32.753 6.8271L32.655 7.81893C33.7055 6.60831 35.4843 5.84985 36.9829 5.84985C39.518 5.84985 40.8066 8.00854 40.2464 11.2612L39.6581 14.7326C39.546 15.3889 39.7701 15.6806 40.4284 15.6806H40.6385C40.8346 15.6806 40.9747 15.8557 40.9467 16.0599L40.3864 19.4146C40.3584 19.575 40.2324 19.6771 40.0783 19.6771H39.5741C36.5487 19.6771 35.2461 18.0727 35.7504 14.9513L36.2686 11.9175C36.5067 10.5319 36.0585 9.54004 34.7839 9.54004C33.5514 9.54004 32.557 10.4589 32.2208 12.3697L31.5065 19.6771H27.6548L28.9294 6.75417C28.9294 6.57914 29.0554 6.46245 29.2235 6.46245Z" fill="#3A3080"/>
<path d="M43.0501 6.46245H46.2716C46.4536 6.46245 46.6077 6.6229 46.5797 6.8271L46.4817 7.81893C47.5321 6.60831 49.3109 5.84985 50.8096 5.84985C53.3447 5.84985 54.6333 8.00854 54.073 11.2612L53.4848 14.7326C53.3727 15.3889 53.5968 15.6806 54.2551 15.6806H54.4652C54.6613 15.6806 54.8013 15.8557 54.7733 16.0599L54.2131 19.4146C54.1851 19.575 54.059 19.6771 53.905 19.6771H53.4007C50.3754 19.6771 49.0728 18.0727 49.577 14.9513L50.0953 11.9175C50.3334 10.5319 49.8852 9.54004 48.6106 9.54004C47.3781 9.54004 46.3836 10.4589 46.0475 12.3697L45.3332 19.6771H41.4814L42.756 6.75417C42.756 6.57914 42.8961 6.46245 43.0501 6.46245Z" fill="#3A3080"/>
<path d="M84.6758 15.9851C84.1086 16.516 83.5414 16.9805 82.9742 17.3786C82.407 17.7768 81.8148 18.1086 81.1975 18.374C80.597 18.6395 79.9547 18.8302 79.2707 18.9464C78.5868 19.0791 77.8444 19.1454 77.0436 19.1454C75.8926 19.1454 74.8332 18.9547 73.8657 18.5731C72.8981 18.1915 72.064 17.6524 71.3633 16.9556C70.6627 16.2588 70.1121 15.4211 69.7118 14.4423C69.3281 13.4635 69.1362 12.3685 69.1362 11.1575C69.1362 9.78055 69.4031 8.45338 69.937 7.17597C70.4875 5.89856 71.2465 4.77047 72.2141 3.79168C73.1817 2.79629 74.3244 2.00828 75.6423 1.42764C76.9769 0.830414 78.4283 0.531799 79.9964 0.531799C80.6971 0.531799 81.356 0.614748 81.9733 0.780645C82.5905 0.929952 83.1577 1.13732 83.6749 1.40276C84.2087 1.66819 84.6841 1.9834 85.1012 2.34837C85.5183 2.71334 85.8602 3.1032 86.1272 3.51794L84.2754 5.0359C83.7249 4.2396 83.091 3.65896 82.3736 3.29398C81.6563 2.91242 80.7805 2.72164 79.7462 2.72164C78.5951 2.72164 77.5108 2.95389 76.4931 3.41841C75.4922 3.88292 74.6164 4.50503 73.8657 5.28475C73.1316 6.04787 72.5478 6.92713 72.114 7.92251C71.697 8.91789 71.4884 9.95475 71.4884 11.0331C71.4884 11.9289 71.6302 12.7418 71.9138 13.4718C72.2141 14.2017 72.6228 14.8238 73.14 15.3381C73.6738 15.8524 74.2911 16.2505 74.9917 16.5326C75.7091 16.8146 76.4848 16.9556 77.3189 16.9556C78.5701 16.9556 79.6544 16.7233 80.572 16.2588C81.4895 15.7777 82.3653 15.1307 83.1994 14.3178L84.6758 15.9851Z" fill="#3A3080"/>
<path d="M93.2835 6.15571C94.8683 6.15571 96.0611 6.52068 96.8618 7.25063C97.6793 7.98057 98.088 8.96766 98.088 10.2119C98.088 10.411 98.0713 10.6266 98.0379 10.8589C98.0213 11.0745 97.9962 11.2985 97.9629 11.5308L96.6617 18.7473H94.4596L94.7599 17.0551H94.6598C94.2594 17.6358 93.7089 18.1335 93.0082 18.5482C92.3076 18.9464 91.5235 19.1454 90.656 19.1454C90.0555 19.1454 89.4966 19.0542 88.9794 18.8717C88.4623 18.7058 88.0119 18.457 87.6282 18.1252C87.2612 17.7934 86.9692 17.4035 86.7524 16.9556C86.5355 16.4911 86.4271 15.9685 86.4271 15.3879C86.4271 14.6911 86.5772 14.0607 86.8775 13.4966C87.1944 12.9326 87.6198 12.4598 88.1537 12.0782C88.6875 11.6801 89.3131 11.3732 90.0304 11.1575C90.7645 10.9418 91.5569 10.834 92.4077 10.834C93.0916 10.834 93.6922 10.9087 94.2094 11.058C94.7432 11.1907 95.252 11.3649 95.7358 11.5805L95.8359 11.058C95.8692 10.9252 95.8859 10.7593 95.8859 10.5603C95.8859 9.84691 95.6274 9.27457 95.1102 8.84324C94.593 8.4119 93.9091 8.19624 93.0583 8.19624C92.4077 8.19624 91.8238 8.32066 91.3066 8.56951C90.8062 8.81835 90.314 9.23309 89.8302 9.81373L88.0286 8.54462C88.6124 7.76491 89.3548 7.17597 90.2556 6.77782C91.1732 6.36308 92.1825 6.15571 93.2835 6.15571ZM91.1315 17.1049C91.6486 17.1049 92.1407 17.0137 92.6079 16.8312C93.0916 16.6487 93.517 16.3998 93.8841 16.0846C94.2677 15.7528 94.593 15.3713 94.86 14.9399C95.1269 14.492 95.302 14.0192 95.3855 13.5215C95.1853 13.3722 94.935 13.2312 94.6348 13.0985C94.3678 12.999 94.0342 12.9077 93.6338 12.8248C93.2501 12.7252 92.783 12.6755 92.2325 12.6755C91.8154 12.6755 91.3984 12.7252 90.9813 12.8248C90.5809 12.9243 90.2223 13.0819 89.9053 13.2976C89.5884 13.5132 89.3298 13.7787 89.1296 14.0939C88.9294 14.4091 88.8293 14.7741 88.8293 15.1888C88.8293 15.504 88.896 15.786 89.0295 16.0349C89.163 16.2671 89.3298 16.4662 89.53 16.6321C89.7468 16.7814 89.9887 16.8975 90.2556 16.9805C90.5392 17.0634 90.8312 17.1049 91.1315 17.1049Z" fill="#3A3080"/>
<path d="M113.096 18.9464C112.679 18.9464 112.287 18.88 111.92 18.7473C111.553 18.6146 111.236 18.4321 110.969 18.1998C110.702 17.951 110.485 17.6524 110.319 17.304C110.168 16.9556 110.093 16.5657 110.093 16.1344C110.093 16.0017 110.102 15.8275 110.118 15.6118C110.135 15.3962 110.168 15.1556 110.219 14.8902L111.32 8.64416H109.168L109.543 6.55386H111.695L112.371 2.82118H114.673L113.997 6.55386H117L116.625 8.64416H113.622L112.571 14.5667C112.537 14.7823 112.512 14.9648 112.496 15.1141C112.462 15.28 112.446 15.4293 112.446 15.5621C112.446 15.927 112.546 16.2257 112.746 16.4579C112.946 16.6902 113.255 16.8063 113.672 16.8063C113.955 16.8063 114.164 16.7897 114.297 16.7565C114.447 16.7233 114.614 16.6653 114.798 16.5823L115.173 18.6229C114.84 18.739 114.506 18.8219 114.172 18.8717C113.855 18.9215 113.497 18.9464 113.096 18.9464ZM102.686 8.54462H102.787C103.154 7.76491 103.729 7.18427 104.513 6.8027C105.314 6.40455 106.173 6.20548 107.091 6.20548C107.324 6.20548 107.491 6.21377 107.591 6.23036C107.691 6.23036 107.8 6.23865 107.916 6.25524L107.491 8.64416C107.374 8.61098 107.232 8.5861 107.066 8.56951C106.899 8.55292 106.699 8.54462 106.465 8.54462C105.948 8.54462 105.447 8.63587 104.964 8.81835C104.496 8.98425 104.063 9.23309 103.662 9.56489C103.279 9.89668 102.953 10.2948 102.686 10.7593C102.42 11.2239 102.236 11.7381 102.136 12.3022L100.985 18.7473H98.6827L100.835 6.55386H103.037L102.686 8.54462Z" fill="#3A3080"/>
</svg>